<svg width="15" height="87" viewBox="0 0 15 87" fill="none" xmlns="http://www.w3.org/2000/svg">
<path d="M13 0.133911H2C1.15625 0.133911 0.5 0.821411 0.5 1.63391V12.6339C0.5 13.4777 1.15625 14.1339 2 14.1339H13C13.8125 14.1339 14.5 13.4777 14.5 12.6339V1.63391C14.5 0.821411 13.8125 0.133911 13 0.133911ZM13 12.6339H2V1.63391H13V12.6339ZM11.875 5.10266C12 4.94641 12 4.72766 11.875 4.57141L11.1562 3.85266C11.0312 3.69641 10.7812 3.69641 10.625 3.85266L6.21875 8.22766L4.34375 6.35266C4.1875 6.19641 3.96875 6.19641 3.8125 6.35266L3.09375 7.04016C2.96875 7.19641 2.96875 7.44641 3.09375 7.57141L5.9375 10.4464C6.09375 10.6027 6.3125 10.6027 6.46875 10.4464L11.875 5.10266ZM13 36.1339H2C1.15625 36.1339 0.5 36.8214 0.5 37.6339V48.6339C0.5 49.4777 1.15625 50.1339 2 50.1339H13C13.8125 50.1339 14.5 49.4777 14.5 48.6339V37.6339C14.5 36.8214 13.8125 36.1339 13 36.1339ZM13 48.6339H2V37.6339H13V48.6339ZM11.875 41.1027C12 40.9464 12 40.7277 11.875 40.5714L11.1562 39.8527C11.0312 39.6964 10.7812 39.6964 10.625 39.8527L6.21875 44.2277L4.34375 42.3527C4.1875 42.1964 3.96875 42.1964 3.8125 42.3527L3.09375 43.0402C2.96875 43.1964 2.96875 43.4464 3.09375 43.5714L5.9375 46.4464C6.09375 46.6027 6.3125 46.6027 6.46875 46.4464L11.875 41.1027ZM13 72.1339H2C1.15625 72.1339 0.5 72.8214 0.5 73.6339V84.6339C0.5 85.4777 1.15625 86.1339 2 86.1339H13C13.8125 86.1339 14.5 85.4777 14.5 84.6339V73.6339C14.5 72.8214 13.8125 72.1339 13 72.1339ZM13 84.6339H2V73.6339H13V84.6339ZM11.875 77.1027C12 76.9464 12 76.7277 11.875 76.5714L11.1562 75.8527C11.0312 75.6964 10.7812 75.6964 10.625 75.8527L6.21875 80.2277L4.34375 78.3527C4.1875 78.1964 3.96875 78.1964 3.8125 78.3527L3.09375 79.0402C2.96875 79.1964 2.96875 79.4464 3.09375 79.5714L5.9375 82.4464C6.09375 82.6027 6.3125 82.6027 6.46875 82.4464L11.875 77.1027Z" fill="#9DA1B4"/>
</svg>
